<svg width="24" height="24" viewBox="0 0 24 24" fill="none" xmlns="http://www.w3.org/2000/svg">
<path d="M19.0005 4H17.0005V3C17.0005 2.73478 16.8951 2.48043 16.7076 2.29289C16.5201 2.10536 16.2657 2 16.0005 2C15.7353 2 15.4809 2.10536 15.2934 2.29289C15.1058 2.48043 15.0005 2.73478 15.0005 3V4H9.00049V3C9.00049 2.73478 8.89513 2.48043 8.70759 2.29289C8.52006 2.10536 8.2657 2 8.00049 2C7.73527 2 7.48092 2.10536 7.29338 2.29289C7.10584 2.48043 7.00049 2.73478 7.00049 3V4H5.00049C4.20484 4 3.44178 4.31607 2.87917 4.87868C2.31656 5.44129 2.00049 6.20435 2.00049 7V19C2.00049 19.7956 2.31656 20.5587 2.87917 21.1213C3.44178 21.6839 4.20484 22 5.00049 22H19.0005C19.7961 22 20.5592 21.6839 21.1218 21.1213C21.6844 20.5587 22.0005 19.7956 22.0005 19V7C22.0005 6.20435 21.6844 5.44129 21.1218 4.87868C20.5592 4.31607 19.7961 4 19.0005 4ZM20.0005 19C20.0005 19.2652 19.8951 19.5196 19.7076 19.7071C19.5201 19.8946 19.2657 20 19.0005 20H5.00049C4.73527 20 4.48092 19.8946 4.29338 19.7071C4.10585 19.5196 4.00049 19.2652 4.00049 19V12H20.0005V19ZM20.0005 10H4.00049V7C4.00049 6.73478 4.10585 6.48043 4.29338 6.29289C4.48092 6.10536 4.73527 6 5.00049 6H7.00049V7C7.00049 7.26522 7.10584 7.51957 7.29338 7.70711C7.48092 7.89464 7.73527 8 8.00049 8C8.2657 8 8.52006 7.89464 8.70759 7.70711C8.89513 7.51957 9.00049 7.26522 9.00049 7V6H15.0005V7C15.0005 7.26522 15.1058 7.51957 15.2934 7.70711C15.4809 7.89464 15.7353 8 16.0005 8C16.2657 8 16.5201 7.89464 16.7076 7.70711C16.8951 7.51957 17.0005 7.26522 17.0005 7V6H19.0005C19.2657 6 19.5201 6.10536 19.7076 6.29289C19.8951 6.48043 20.0005 6.73478 20.0005 7V10Z" fill="#333333"/>
</svg>
