<svg width="132" height="39" viewBox="0 0 132 39" fill="none" xmlns="http://www.w3.org/2000/svg">
<rect width="132" height="39" rx="19.5" fill="black"/>
<path d="M29.7461 27.8752C29.0598 27.8752 28.0958 27.627 26.6523 26.8205C24.897 25.8361 23.5392 24.9273 21.7934 23.186C20.1101 21.5038 19.2909 20.4147 18.1445 18.3285C16.8493 15.973 17.0701 14.7383 17.3169 14.2106C17.6108 13.5799 18.0447 13.2027 18.6054 12.8283C18.9239 12.6196 19.2609 12.4407 19.6123 12.2939C19.6474 12.2788 19.6801 12.2644 19.7093 12.2514C19.8833 12.173 20.147 12.0545 20.481 12.1811C20.7039 12.2647 20.9029 12.4359 21.2143 12.7436C21.8531 13.3736 22.7261 14.7766 23.0481 15.4657C23.2643 15.9301 23.4074 16.2367 23.4077 16.5805C23.4077 16.9831 23.2052 17.2935 22.9595 17.6285C22.9134 17.6915 22.8677 17.7516 22.8234 17.8099C22.5559 18.1615 22.4972 18.2631 22.5359 18.4445C22.6143 18.8091 23.1989 19.8943 24.1597 20.8531C25.1206 21.8118 26.1745 22.3595 26.5405 22.4375C26.7297 22.478 26.8334 22.4168 27.1962 22.1398C27.2482 22.1 27.3016 22.0589 27.3575 22.0178C27.7323 21.739 28.0283 21.5418 28.4214 21.5418H28.4235C28.7656 21.5418 29.0584 21.6901 29.5436 21.9348C30.1764 22.254 31.6216 23.1157 32.2555 23.7552C32.5638 24.066 32.7357 24.2643 32.8198 24.4868C32.9463 24.8218 32.8272 25.0845 32.7495 25.2602C32.7364 25.2894 32.722 25.3214 32.7069 25.3569C32.5589 25.7076 32.379 26.044 32.1694 26.3617C31.7957 26.9207 31.417 27.3534 30.7849 27.6477C30.4603 27.8013 30.1051 27.879 29.7461 27.8752Z" fill="white"/>
<path d="M43.1855 14.3945V25H41.2666V16.2549H41.208L38.7324 17.8369V16.0938L41.3545 14.3945H43.1855ZM49.2283 25.1465C47.1043 25.1465 45.5516 23.8867 45.493 22.1289H47.3533C47.4119 22.9932 48.2176 23.6084 49.2283 23.6084C50.4148 23.6084 51.2645 22.7441 51.2645 21.5723C51.2645 20.3564 50.3855 19.4922 49.1697 19.4922C48.3494 19.4775 47.7488 19.7705 47.4119 20.4004H45.6395L46.284 14.3945H52.5535V15.9912H47.8514L47.5291 18.8037H47.6316C48.0418 18.335 48.8182 17.998 49.6824 17.998C51.66 17.998 53.1102 19.4775 53.1102 21.5137C53.1102 23.6377 51.5135 25.1465 49.2283 25.1465ZM54.2311 23.0225V21.499L58.816 14.3945H61.1891V21.4551H62.5807V23.0225H61.1891V25H59.3727V23.0225H54.2311ZM56.1793 21.4551H59.402V16.5625H59.2848L56.1793 21.3818V21.4551ZM63.6137 23.0225V21.499L68.1986 14.3945H70.5717V21.4551H71.9633V23.0225H70.5717V25H68.7553V23.0225H63.6137ZM65.5619 21.4551H68.7846V16.5625H68.6674L65.5619 21.3818V21.4551ZM78.0207 18.9355V20.4736H73.2453V18.9355H78.0207ZM83.4482 25.1465C80.8994 25.1465 79.376 23.1689 79.376 19.6973C79.376 16.2402 80.8994 14.248 83.4482 14.248C85.9824 14.248 87.5205 16.2402 87.5205 19.6973C87.5205 23.1689 85.9971 25.1465 83.4482 25.1465ZM83.4482 23.5498C84.7812 23.5498 85.6016 22.2461 85.6016 19.6973C85.6016 17.1631 84.7666 15.8301 83.4482 15.8301C82.1299 15.8301 81.2949 17.1631 81.2949 19.6973C81.2949 22.2461 82.1152 23.5498 83.4482 23.5498ZM92.6697 25.1465C90.3113 25.1465 88.6414 23.8867 88.6414 22.1582C88.6414 20.8105 89.6375 19.7119 90.9119 19.5068V19.4482C89.7986 19.2139 89.0369 18.2471 89.0369 17.0898C89.0369 15.4492 90.575 14.248 92.6697 14.248C94.7498 14.248 96.2879 15.4492 96.2879 17.0898C96.2879 18.2471 95.5115 19.2139 94.4129 19.4482V19.5068C95.6873 19.7119 96.698 20.8105 96.698 22.1582C96.698 23.8867 95.0135 25.1465 92.6697 25.1465ZM92.6697 23.6377C93.9148 23.6377 94.7352 22.9639 94.7352 21.9824C94.7352 20.9863 93.8563 20.2539 92.6697 20.2539C91.4686 20.2539 90.5896 20.9863 90.6043 21.9824C90.5896 22.9639 91.41 23.6377 92.6697 23.6377ZM92.6697 18.833C93.6951 18.833 94.4275 18.1885 94.4275 17.2656C94.4275 16.3721 93.7098 15.7422 92.6697 15.7422C91.615 15.7422 90.8973 16.3574 90.8973 17.2656C90.8973 18.1885 91.6297 18.833 92.6697 18.833ZM101.891 25.1465C99.3424 25.1465 97.8189 23.1689 97.8189 19.6973C97.8189 16.2402 99.3424 14.248 101.891 14.248C104.425 14.248 105.963 16.2402 105.963 19.6973C105.963 23.1689 104.44 25.1465 101.891 25.1465ZM101.891 23.5498C103.224 23.5498 104.045 22.2461 104.045 19.6973C104.045 17.1631 103.21 15.8301 101.891 15.8301C100.573 15.8301 99.7379 17.1631 99.7379 19.6973C99.7379 22.2461 100.558 23.5498 101.891 23.5498ZM107.26 25V23.623L111.01 20.0049C112.079 18.9355 112.636 18.3057 112.636 17.4121C112.636 16.4307 111.86 15.8008 110.82 15.8008C109.721 15.8008 109.018 16.4893 109.033 17.5586H107.216C107.202 15.5518 108.71 14.248 110.834 14.248C113.002 14.248 114.467 15.5371 114.467 17.3242C114.467 18.5254 113.881 19.4922 111.801 21.4551L109.912 23.3301V23.4033H114.628V25H107.26Z" fill="white"/>
</svg>
