<svg width="21" height="20" viewBox="0 0 21 20" fill="none" xmlns="http://www.w3.org/2000/svg">
<path d="M9.33333 11.1667L7.54167 9.375C7.38889 9.22222 7.19444 9.14583 6.95833 9.14583C6.72222 9.14583 6.52778 9.22222 6.375 9.375C6.22222 9.52778 6.14583 9.72222 6.14583 9.95833C6.14583 10.1944 6.22222 10.3889 6.375 10.5417L8.75 12.9167C8.91667 13.0833 9.11111 13.1667 9.33333 13.1667C9.55556 13.1667 9.75 13.0833 9.91667 12.9167L14.625 8.20833C14.7778 8.05556 14.8542 7.86111 14.8542 7.625C14.8542 7.38889 14.7778 7.19444 14.625 7.04167C14.4722 6.88889 14.2778 6.8125 14.0417 6.8125C13.8056 6.8125 13.6111 6.88889 13.4583 7.04167L9.33333 11.1667ZM4.66667 17.5C4.20833 17.5 3.81611 17.3369 3.49 17.0108C3.16389 16.6847 3.00056 16.2922 3 15.8333V4.16667C3 3.70833 3.16333 3.31611 3.49 2.99C3.81667 2.66389 4.20889 2.50056 4.66667 2.5H16.3333C16.7917 2.5 17.1842 2.66333 17.5108 2.99C17.8375 3.31667 18.0006 3.70889 18 4.16667V15.8333C18 16.2917 17.8369 16.6842 17.5108 17.0108C17.1847 17.3375 16.7922 17.5006 16.3333 17.5H4.66667Z" fill="#5E2BB8"/>
</svg>
