<svg width="14" height="15" viewBox="0 0 14 15" fill="none" xmlns="http://www.w3.org/2000/svg">
<g id="x icon">
<path id="Vector" fill-rule="evenodd" clip-rule="evenodd" d="M3.21586 2.71272C3.08114 2.5826 2.90071 2.51061 2.71343 2.51223C2.52614 2.51386 2.34699 2.58898 2.21456 2.72142C2.08212 2.85385 2.007 3.033 2.00537 3.22029C2.00375 3.40757 2.07574 3.588 2.20586 3.72272L5.98657 7.50343L2.20586 11.2841C2.13763 11.35 2.08322 11.4289 2.04578 11.516C2.00835 11.6031 1.98864 11.6969 1.98782 11.7917C1.987 11.8866 2.00507 11.9806 2.04098 12.0684C2.0769 12.1562 2.12994 12.2359 2.197 12.303C2.26407 12.3701 2.34382 12.4231 2.4316 12.459C2.51939 12.4949 2.61344 12.513 2.70829 12.5122C2.80313 12.5114 2.89686 12.4917 2.984 12.4542C3.07115 12.4168 3.14997 12.3624 3.21586 12.2941L6.99657 8.51343L10.7773 12.2941C10.912 12.4243 11.0924 12.4963 11.2797 12.4946C11.467 12.493 11.6461 12.4179 11.7786 12.2854C11.911 12.153 11.9861 11.9739 11.9878 11.7866C11.9894 11.5993 11.9174 11.4189 11.7873 11.2841L8.00657 7.50343L11.7873 3.72272C11.9174 3.588 11.9894 3.40757 11.9878 3.22029C11.9861 3.033 11.911 2.85385 11.7786 2.72142C11.6461 2.58898 11.467 2.51386 11.2797 2.51223C11.0924 2.51061 10.912 2.5826 10.7773 2.71272L6.99657 6.49343L3.21586 2.71272Z" fill="#333333"/>
</g>
</svg>
