<svg width="37" height="36" viewBox="0 0 37 36" fill="none" xmlns="http://www.w3.org/2000/svg">
<g id="filter">
<path id="Vector" d="M21.9688 27.3308C22.3417 27.3308 22.6994 27.1904 22.9631 26.9404C23.2268 26.6904 23.375 26.3513 23.375 25.9978C23.375 25.6443 23.2268 25.3053 22.9631 25.0553C22.6994 24.8053 22.3417 24.6649 21.9688 24.6649C21.5958 24.6649 21.2381 24.8053 20.9744 25.0553C20.7107 25.3053 20.5625 25.6443 20.5625 25.9978C20.5625 26.3513 20.7107 26.6904 20.9744 26.9404C21.2381 27.1904 21.5958 27.3308 21.9688 27.3308ZM25.9484 27.3308C25.6579 28.1113 25.1191 28.7872 24.4063 29.2652C23.6936 29.7433 22.8419 30 21.9688 30C21.0956 30 20.2439 29.7433 19.5312 29.2652C18.8184 28.7872 18.2796 28.1113 17.9891 27.3308H7.90625C7.53329 27.3308 7.1756 27.1904 6.91188 26.9404C6.64816 26.6904 6.5 26.3513 6.5 25.9978C6.5 25.6443 6.64816 25.3053 6.91188 25.0553C7.1756 24.8053 7.53329 24.6649 7.90625 24.6649H17.9891C18.2796 23.8844 18.8184 23.2085 19.5312 22.7304C20.2439 22.2524 21.0956 21.9956 21.9688 21.9956C22.8419 21.9956 23.6936 22.2524 24.4063 22.7304C25.1191 23.2085 25.6579 23.8844 25.9484 24.6649H27.5938C27.9667 24.6649 28.3244 24.8053 28.5881 25.0553C28.8518 25.3053 29 25.6443 29 25.9978C29 26.3513 28.8518 26.6904 28.5881 26.9404C28.3244 27.1904 27.9667 27.3308 27.5938 27.3308H25.9484ZM13.5312 19.333C13.9042 19.333 14.2619 19.1925 14.5256 18.9426C14.7893 18.6926 14.9375 18.3535 14.9375 18C14.9375 17.6465 14.7893 17.3074 14.5256 17.0574C14.2619 16.8075 13.9042 16.667 13.5312 16.667C13.1583 16.667 12.8006 16.8075 12.5369 17.0574C12.2732 17.3074 12.125 17.6465 12.125 18C12.125 18.3535 12.2732 18.6926 12.5369 18.9426C12.8006 19.1925 13.1583 19.333 13.5312 19.333ZM17.5109 19.333C17.2204 20.1135 16.6816 20.7893 15.9688 21.2674C15.2561 21.7455 14.4044 22.0022 13.5312 22.0022C12.6581 22.0022 11.8064 21.7455 11.0937 21.2674C10.3809 20.7893 9.8421 20.1135 9.55156 19.333H7.90625C7.53329 19.333 7.1756 19.1925 6.91188 18.9426C6.64816 18.6926 6.5 18.3535 6.5 18C6.5 17.6465 6.64816 17.3074 6.91188 17.0574C7.1756 16.8075 7.53329 16.667 7.90625 16.667H9.55156C9.8421 15.8865 10.3809 15.2107 11.0937 14.7326C11.8064 14.2545 12.6581 13.9978 13.5312 13.9978C14.4044 13.9978 15.2561 14.2545 15.9688 14.7326C16.6816 15.2107 17.2204 15.8865 17.5109 16.667H27.5938C27.9667 16.667 28.3244 16.8075 28.5881 17.0574C28.8518 17.3074 29 17.6465 29 18C29 18.3535 28.8518 18.6926 28.5881 18.9426C28.3244 19.1925 27.9667 19.333 27.5938 19.333H17.5109ZM21.9688 11.3351C22.3417 11.3351 22.6994 11.1947 22.9631 10.9447C23.2268 10.6947 23.375 10.3557 23.375 10.0022C23.375 9.64865 23.2268 9.3096 22.9631 9.05962C22.6994 8.80964 22.3417 8.66921 21.9688 8.66921C21.5958 8.66921 21.2381 8.80964 20.9744 9.05962C20.7107 9.3096 20.5625 9.64865 20.5625 10.0022C20.5625 10.3557 20.7107 10.6947 20.9744 10.9447C21.2381 11.1947 21.5958 11.3351 21.9688 11.3351ZM25.9484 11.3351C25.6579 12.1156 25.1191 12.7915 24.4063 13.2696C23.6936 13.7476 22.8419 14.0044 21.9688 14.0044C21.0956 14.0044 20.2439 13.7476 19.5312 13.2696C18.8184 12.7915 18.2796 12.1156 17.9891 11.3351H7.90625C7.53329 11.3351 7.1756 11.1947 6.91188 10.9447C6.64816 10.6947 6.5 10.3557 6.5 10.0022C6.5 9.64865 6.64816 9.3096 6.91188 9.05962C7.1756 8.80964 7.53329 8.66921 7.90625 8.66921H17.9891C18.2796 7.88871 18.8184 7.21285 19.5312 6.73479C20.2439 6.25673 21.0956 6 21.9688 6C22.8419 6 23.6936 6.25673 24.4063 6.73479C25.1191 7.21285 25.6579 7.88871 25.9484 8.66921H27.5938C27.9667 8.66921 28.3244 8.80964 28.5881 9.05962C28.8518 9.3096 29 9.64865 29 10.0022C29 10.3557 28.8518 10.6947 28.5881 10.9447C28.3244 11.1947 27.9667 11.3351 27.5938 11.3351H25.9484Z" fill="#111111"/>
</g>
</svg>
