<svg width="51" height="50" viewBox="0 0 51 50" fill="none" xmlns="http://www.w3.org/2000/svg">
<path d="M10.5 0.599609H49.9004V40C49.9004 45.1915 45.6915 49.4004 40.5 49.4004H10.5C5.30852 49.4004 1.09961 45.1915 1.09961 40V10C1.09961 4.80852 5.30852 0.599609 10.5 0.599609Z" stroke="#5E2BB8" stroke-width="1.2"/>
<path d="M12.5 38L38.5 12" stroke="#5E2BB8" stroke-width="1.35417" stroke-linecap="round"/>
<path d="M14.6234 12.11C15.2819 12.0575 16.1011 12.1476 17.0404 12.4557L17.1488 12.4977C17.4103 12.6079 17.7248 12.815 18.0482 13.0544C18.4382 13.343 18.9072 13.728 19.431 14.1794C20.2391 14.8758 21.1916 15.7466 22.2093 16.7057L32.6419 13.6188C33.1075 13.4813 33.6107 13.6333 33.9222 14.0055L35.2376 15.5797L35.3226 15.693C35.7089 16.2799 35.5187 17.0894 34.8831 17.4333L27.2093 21.5856C28.3817 22.7613 29.4824 23.8844 30.3968 24.8337C30.5308 24.9727 30.7288 25.0298 30.9163 24.984L35.8343 23.7848C36.0207 23.7397 36.2194 23.7975 36.3529 23.9352L38.0179 25.6569C38.2642 25.912 38.2031 26.3318 37.8939 26.5055L31.3587 30.1745C31.268 30.2254 31.1935 30.3013 31.1449 30.3932L27.638 37.0202C27.4719 37.3342 27.0526 37.4053 26.7913 37.1647L25.0316 35.5397C24.8906 35.4095 24.8284 35.2135 24.8695 35.026L25.9535 30.0807C25.9947 29.8924 25.933 29.6968 25.7913 29.5661C24.7696 28.6229 23.5586 27.4737 22.2972 26.2526L17.7845 34.0915C17.424 34.7176 16.61 34.8866 16.0335 34.485L15.9222 34.3971L14.3831 33.0397C14.0192 32.7183 13.8807 32.2115 14.0306 31.7497L17.3988 21.3844C16.4813 20.4444 15.6454 19.567 14.9622 18.82C14.4959 18.3101 14.0961 17.8563 13.7894 17.4831C13.5679 17.2135 13.3766 16.9626 13.2445 16.7546L13.1331 16.5612C12.8322 15.9593 12.6415 15.2785 12.6029 14.6247C12.5651 13.982 12.6726 13.3157 13.0228 12.7819C13.0441 12.7477 13.0693 12.7149 13.099 12.6852C13.4314 12.3529 13.9864 12.161 14.6234 12.11ZM14.7103 13.1901C14.3201 13.2213 14.0786 13.3143 13.9525 13.3893C13.9165 13.4107 13.8888 13.4431 13.8675 13.4792C13.7266 13.75 13.6581 14.1205 13.6839 14.5602C13.7132 15.0569 13.8614 15.596 14.1019 16.0768L14.1654 16.1862C14.2506 16.3185 14.4014 16.5208 14.6263 16.7946C14.9159 17.147 15.3019 17.5854 15.762 18.0885C16.6825 19.0949 17.8907 20.3494 19.2093 21.6803C21.8471 24.3427 24.9147 27.3019 26.9828 29.1901C27.1248 29.3204 27.1879 29.5174 27.1468 29.7057L26.0609 34.651C26.0197 34.8388 26.0809 35.0342 26.222 35.1647L26.4915 35.4137C26.7527 35.6548 27.1719 35.5833 27.3382 35.2692L30.3363 29.6071C30.3434 29.5937 30.3526 29.5816 30.3607 29.569C30.3705 29.5536 30.3795 29.5375 30.391 29.5231C30.4277 29.4768 30.4719 29.4391 30.5199 29.4079C30.5299 29.4013 30.5396 29.3933 30.5501 29.3874L36.139 26.2487C36.4482 26.0748 36.5094 25.6553 36.263 25.4001L36.0062 25.1344C35.8724 24.996 35.6746 24.9384 35.4876 24.984L30.5697 26.1852C30.3824 26.2302 30.1824 26.1719 30.0492 26.0329C28.1105 24.0062 25.0984 20.963 22.3861 18.3669C21.0295 17.0684 19.7521 15.8857 18.724 14.9997C18.2095 14.5563 17.7621 14.1915 17.4027 13.9255C17.1183 13.715 16.9193 13.5893 16.7982 13.527L16.7035 13.485C15.8784 13.2144 15.2039 13.1508 14.7103 13.1901ZM15.346 32.0827L16.6927 33.2712L21.2972 25.2751C20.3434 24.3423 19.3798 23.3912 18.4691 22.4723L15.346 32.0827ZM23.3411 17.7829C24.2844 18.6885 25.2569 19.6446 26.2064 20.5876L34.0921 16.32L32.9398 14.9421L23.3411 17.7829Z" fill="#5E2BB8"/>
<path d="M27.8354 27.1511L33.2521 32.5678" stroke="#5E2BB8" stroke-width="1.35417" stroke-linecap="round"/>
</svg>
