<svg width="16" height="17" viewBox="0 0 16 17" fill="none" xmlns="http://www.w3.org/2000/svg">
<path d="M7.99985 1.11536C9.44049 1.11537 10.8244 1.67673 11.858 2.68032C12.8916 3.6839 13.4934 5.05072 13.5358 6.49074L13.5383 6.65382C14.0279 6.65382 14.4975 6.84832 14.8437 7.19454C15.19 7.54076 15.3845 8.01034 15.3845 8.49997V9.73074C15.3845 10.2204 15.19 10.6899 14.8437 11.0362C14.4975 11.3824 14.0279 11.5769 13.5383 11.5769L13.3598 11.5775C13.1167 12.39 12.6395 13.1129 11.9878 13.6556C11.3361 14.1984 10.5389 14.537 9.69585 14.6292C9.56452 14.869 9.35714 15.0582 9.10639 15.1671C8.85565 15.276 8.57578 15.2984 8.31092 15.2307C8.04606 15.163 7.81125 15.0091 7.64351 14.7932C7.47577 14.5774 7.38463 14.3118 7.38446 14.0384C7.38429 13.7704 7.47161 13.5097 7.63315 13.2958C7.79469 13.082 8.02163 12.9267 8.27948 12.8536C8.53733 12.7804 8.812 12.7935 9.06176 12.8907C9.31151 12.988 9.5227 13.1641 9.66323 13.3923C10.1919 13.3174 10.6919 13.1062 11.1142 12.7795C11.5365 12.4527 11.8666 12.0218 12.0718 11.5289C11.9594 11.4827 11.8632 11.4041 11.7956 11.303C11.728 11.202 11.692 11.0831 11.6922 10.9615V7.2692C11.6922 7.10599 11.757 6.94947 11.8724 6.83406C11.9878 6.71865 12.1443 6.65382 12.3075 6.65382C12.3081 5.52378 11.8646 4.43877 11.0726 3.63269C10.2806 2.82662 9.20358 2.36403 8.07371 2.34466C6.94383 2.32528 5.85158 2.75067 5.03243 3.52912C4.21327 4.30757 3.73281 5.37673 3.69462 6.50613L3.69216 6.65382C3.85537 6.65382 4.01189 6.71865 4.1273 6.83406C4.24271 6.94947 4.30754 7.10599 4.30754 7.2692V10.9615C4.30754 11.1247 4.24271 11.2812 4.1273 11.3967C4.01189 11.5121 3.85537 11.5769 3.69216 11.5769H2.46139C1.97176 11.5769 1.50218 11.3824 1.15596 11.0362C0.809739 10.6899 0.615234 10.2204 0.615234 9.73074V8.49997C0.615234 8.01034 0.809739 7.54076 1.15596 7.19454C1.50218 6.84832 1.97176 6.65382 2.46139 6.65382C2.46139 5.18493 3.0449 3.7762 4.08357 2.73753C5.12223 1.69887 6.53096 1.11536 7.99985 1.11536Z" fill="#333333"/>
</svg>
