<svg width="20" height="21" viewBox="0 0 20 21" fill="none" xmlns="http://www.w3.org/2000/svg">
<rect x="0.5" y="1" width="19" height="19" fill="white"/>
<rect x="0.5" y="1" width="19" height="19" stroke="#D3D3D3"/>
<path d="M8.76383 5.83561C8.51646 5.69513 8.20567 5.76174 8.0253 6.01168C7.84503 6.26147 7.85487 6.61158 8.03248 6.84827L8.11862 6.94277L12.1298 10.5L8.11862 14.0573L8.03248 14.1518C7.85487 14.3885 7.84503 14.7386 8.0253 14.9884C8.20567 15.2383 8.51646 15.3049 8.76383 15.1644L8.86523 15.0918L13.4597 11.0173C13.6014 10.8916 13.6841 10.7012 13.6841 10.5C13.6841 10.2989 13.6014 10.1084 13.4597 9.98275L8.86523 5.90823L8.76383 5.83561Z" fill="#D3D3D3"/>
</svg>
