<svg width="20" height="21" viewBox="0 0 20 21" fill="none" xmlns="http://www.w3.org/2000/svg">
<rect x="0.5" y="1" width="19" height="19" fill="white"/>
<rect x="0.5" y="1" width="19" height="19" stroke="#D3D3D3"/>
<path d="M11.2362 5.83561C11.4835 5.69513 11.7943 5.76174 11.9747 6.01168C12.155 6.26147 12.1451 6.61158 11.9675 6.84827L11.8814 6.94277L7.87015 10.5L11.8814 14.0573L11.9675 14.1518C12.1451 14.3885 12.155 14.7386 11.9747 14.9884C11.7943 15.2383 11.4835 15.3049 11.2362 15.1644L11.1348 15.0918L6.54026 11.0173C6.39857 10.8916 6.31592 10.7012 6.31592 10.5C6.31592 10.2989 6.39857 10.1084 6.54026 9.98275L11.1348 5.90823L11.2362 5.83561Z" fill="#D3D3D3"/>
</svg>
