<svg width="51" height="50" viewBox="0 0 51 50" fill="none" xmlns="http://www.w3.org/2000/svg">
<path d="M10.5 0.599609H49.9004V40C49.9004 45.1915 45.6915 49.4004 40.5 49.4004H10.5C5.30852 49.4004 1.09961 45.1915 1.09961 40V10C1.09961 4.80852 5.30852 0.599609 10.5 0.599609Z" stroke="#666666" stroke-width="1.2"/>
<circle cx="25.5" cy="17.3061" r="3.84694" stroke="#666666" stroke-width="1.32653"/>
<mask id="path-3-inside-1_615_13871" fill="white">
<path d="M25.4995 22.6121C29.8951 22.6122 33.4585 25.7732 33.4585 29.6726C33.4585 29.7502 33.4547 29.8275 33.4518 29.9045C33.4517 29.9064 33.4532 29.908 33.4551 29.908C33.457 29.908 33.4585 29.9095 33.4585 29.9113V33.5559C33.4585 35.5706 31.8253 37.2039 29.8105 37.2039H21.1885C19.1738 37.2039 17.5405 35.5706 17.5405 33.5559V29.9108C17.5405 29.9092 17.5418 29.908 17.5434 29.908C17.545 29.908 17.5463 29.9066 17.5463 29.905C17.5434 29.8278 17.5405 29.7504 17.5405 29.6726C17.5405 25.7732 21.1038 22.6121 25.4995 22.6121Z"/>
</mask>
<path d="M25.4995 22.6121L25.4995 21.2855H25.4995V22.6121ZM33.4585 29.6726H34.785V29.6726L33.4585 29.6726ZM17.5405 29.6726L16.214 29.6726V29.6726H17.5405ZM17.5463 29.905L18.8719 29.856L17.5463 29.905ZM33.4518 29.9045L34.7774 29.9539L33.4518 29.9045ZM25.4995 22.6121L25.4995 23.9386C29.3163 23.9387 32.132 26.6508 32.132 29.6726L33.4585 29.6726L34.785 29.6726C34.785 24.8957 30.4739 21.2857 25.4995 21.2855L25.4995 22.6121ZM33.4585 29.6726H32.132C32.132 29.7177 32.1299 29.7559 32.1262 29.855L33.4518 29.9045L34.7774 29.9539C34.7794 29.899 34.785 29.7827 34.785 29.6726H33.4585ZM33.4585 29.9113H32.132V33.5559H33.4585H34.785V29.9113H33.4585ZM29.8105 37.2039V35.8773H21.1885V37.2039V38.5304H29.8105V37.2039ZM17.5405 33.5559H18.8671V29.9108H17.5405H16.214V33.5559H17.5405ZM17.5463 29.905L18.8719 29.856C18.8689 29.7742 18.8671 29.7216 18.8671 29.6726H17.5405H16.214C16.214 29.7791 16.218 29.8814 16.2207 29.954L17.5463 29.905ZM17.5405 29.6726L18.8671 29.6726C18.8671 26.6507 21.6826 23.9386 25.4995 23.9386V22.6121V21.2855C20.525 21.2855 16.214 24.8957 16.214 29.6726L17.5405 29.6726ZM17.5434 29.908V31.2345C18.2967 31.2345 18.8997 30.6091 18.8719 29.856L17.5463 29.905L16.2207 29.954C16.1929 29.2041 16.7933 28.5814 17.5434 28.5814V29.908ZM17.5405 29.9108H18.8671C18.8671 30.6418 18.2745 31.2345 17.5434 31.2345V29.908V28.5814C16.8091 28.5814 16.214 29.1767 16.214 29.9108H17.5405ZM21.1885 37.2039V35.8773C19.9064 35.8773 18.8671 34.838 18.8671 33.5559H17.5405H16.214C16.214 36.3032 18.4411 38.5304 21.1885 38.5304V37.2039ZM33.4585 33.5559H32.132C32.132 34.838 31.0926 35.8773 29.8105 35.8773V37.2039V38.5304C32.5579 38.5304 34.785 36.3032 34.785 33.5559H33.4585ZM33.4551 29.908V31.2345C32.7244 31.2345 32.132 30.6421 32.132 29.9113H33.4585H34.785C34.785 29.1768 34.1896 28.5814 33.4551 28.5814V29.908ZM33.4518 29.9045L32.1262 29.855C32.098 30.6089 32.7017 31.2345 33.4551 31.2345V29.908V28.5814C34.2048 28.5814 34.8054 29.2039 34.7774 29.9539L33.4518 29.9045Z" fill="#666666" mask="url(#path-3-inside-1_615_13871)"/>
<circle cx="18.2039" cy="19.2959" r="3.18367" stroke="#666666" stroke-width="1.32653"/>
<path d="M19.1328 23.9387C19.7621 23.9387 20.3705 24.0181 20.9473 24.1633C20.4615 24.4916 20.0188 24.8675 19.6299 25.2844C19.5601 25.279 19.4898 25.2749 19.4189 25.2717L19.1328 25.2649C16.0487 25.2649 13.8264 27.4506 13.8262 29.8225L13.8311 29.9661L13.8291 30.1057C13.8285 30.1142 13.8269 30.1226 13.8262 30.1311V33.0588C13.8262 34.0052 14.5937 34.7727 15.54 34.7727H17.9766C18.1344 35.2696 18.3967 35.7196 18.7363 36.0989H15.54L15.3838 36.095C13.7774 36.0136 12.5 34.6854 12.5 33.0588V30.0217L12.5059 30.0159C12.5035 29.9518 12.5 29.8871 12.5 29.8225C12.5002 26.5731 15.4698 23.9387 19.1328 23.9387Z" fill="#666666"/>
<circle cx="3.84694" cy="3.84694" r="3.18367" transform="matrix(-1 0 0 1 36.6431 15.449)" stroke="#666666" stroke-width="1.32653"/>
<path d="M31.8672 23.9387C31.2379 23.9387 30.6295 24.0181 30.0527 24.1633C30.5385 24.4916 30.9812 24.8675 31.3701 25.2844C31.4399 25.279 31.5102 25.2749 31.5811 25.2717L31.8672 25.2649C34.9513 25.2649 37.1736 27.4506 37.1738 29.8225L37.1689 29.9661L37.1709 30.1057C37.1715 30.1142 37.1731 30.1226 37.1738 30.1311V33.0588C37.1738 34.0052 36.4063 34.7727 35.46 34.7727H33.0234C32.8656 35.2696 32.6033 35.7196 32.2637 36.0989H35.46L35.6162 36.095C37.2226 36.0136 38.5 34.6854 38.5 33.0588V30.0217L38.4941 30.0159C38.4965 29.9518 38.5 29.8871 38.5 29.8225C38.4998 26.5731 35.5302 23.9387 31.8672 23.9387Z" fill="#666666"/>
</svg>
