<svg width="26" height="26" viewBox="0 0 26 26" fill="none" xmlns="http://www.w3.org/2000/svg">
<circle cx="13" cy="13" r="13" fill="#D3D3D3"/>
<path d="M10.5498 7.16669H15.4498C17.3165 7.16669 18.8332 8.68335 18.8332 10.55V15.45C18.8332 16.3473 18.4767 17.2079 17.8422 17.8424C17.2077 18.4769 16.3472 18.8334 15.4498 18.8334H10.5498C8.68317 18.8334 7.1665 17.3167 7.1665 15.45V10.55C7.1665 9.6527 7.52296 8.79214 8.15746 8.15764C8.79196 7.52314 9.65252 7.16669 10.5498 7.16669ZM10.4332 8.33335C9.87622 8.33335 9.34207 8.5546 8.94825 8.94843C8.55442 9.34226 8.33317 9.8764 8.33317 10.4334V15.5667C8.33317 16.7275 9.27234 17.6667 10.4332 17.6667H15.5665C16.1235 17.6667 16.6576 17.4454 17.0514 17.0516C17.4453 16.6578 17.6665 16.1236 17.6665 15.5667V10.4334C17.6665 9.27252 16.7273 8.33335 15.5665 8.33335H10.4332ZM16.0623 9.20835C16.2557 9.20835 16.4412 9.28518 16.5779 9.42192C16.7147 9.55867 16.7915 9.74413 16.7915 9.93752C16.7915 10.1309 16.7147 10.3164 16.5779 10.4531C16.4412 10.5899 16.2557 10.6667 16.0623 10.6667C15.869 10.6667 15.6835 10.5899 15.5467 10.4531C15.41 10.3164 15.3332 10.1309 15.3332 9.93752C15.3332 9.74413 15.41 9.55867 15.5467 9.42192C15.6835 9.28518 15.869 9.20835 16.0623 9.20835ZM12.9998 10.0834C13.7734 10.0834 14.5153 10.3906 15.0622 10.9376C15.6092 11.4846 15.9165 12.2265 15.9165 13C15.9165 13.7736 15.6092 14.5154 15.0622 15.0624C14.5153 15.6094 13.7734 15.9167 12.9998 15.9167C12.2263 15.9167 11.4844 15.6094 10.9374 15.0624C10.3905 14.5154 10.0832 13.7736 10.0832 13C10.0832 12.2265 10.3905 11.4846 10.9374 10.9376C11.4844 10.3906 12.2263 10.0834 12.9998 10.0834ZM12.9998 11.25C12.5357 11.25 12.0906 11.4344 11.7624 11.7626C11.4342 12.0908 11.2498 12.5359 11.2498 13C11.2498 13.4641 11.4342 13.9093 11.7624 14.2375C12.0906 14.5656 12.5357 14.75 12.9998 14.75C13.464 14.75 13.9091 14.5656 14.2373 14.2375C14.5655 13.9093 14.7498 13.4641 14.7498 13C14.7498 12.5359 14.5655 12.0908 14.2373 11.7626C13.9091 11.4344 13.464 11.25 12.9998 11.25Z" fill="white"/>
</svg>
