<svg width="16" height="16" viewBox="0 0 16 16" fill="none" xmlns="http://www.w3.org/2000/svg">
<g id="likesmall">
<path id="Vector" d="M13.5438 3.4927C14.1136 4.06578 14.4423 4.83716 14.4615 5.64703C14.4808 6.45689 14.1892 7.24316 13.6471 7.84291L8.00089 14.0828L2.35693 7.84291C2.07046 7.53104 1.8496 7.16427 1.70759 6.76459C1.56557 6.36491 1.50533 5.94054 1.53046 5.5169C1.5556 5.09327 1.6656 4.6791 1.85386 4.2992C2.04213 3.9193 2.30479 3.58149 2.62611 3.30602C2.94743 3.03055 3.3208 2.82309 3.72383 2.69607C4.12686 2.56904 4.55127 2.52507 4.97163 2.56678C5.39198 2.6085 5.79963 2.73504 6.17014 2.93883C6.54065 3.14262 6.8664 3.41946 7.12787 3.75276L8.00165 4.84916L8.87466 3.75276C9.15051 3.40678 9.49583 3.12309 9.88812 2.92019C10.2804 2.7173 10.7109 2.59975 11.1514 2.57521C11.592 2.55067 12.0327 2.6197 12.4449 2.77779C12.8571 2.93587 13.2315 3.17947 13.5438 3.4927Z" fill="#888888"/>
</g>
</svg>
