<svg width="24" height="24" viewBox="0 0 24 24" fill="none" xmlns="http://www.w3.org/2000/svg">
<path d="M20.8698 4.78813C21.7816 5.70505 22.3074 6.93927 22.3382 8.23505C22.369 9.53083 21.9025 10.7889 21.0352 11.7485L12.0012 21.7322L2.97089 11.7485C2.51254 11.2495 2.15916 10.6626 1.93194 10.0231C1.70472 9.38366 1.60833 8.70466 1.64855 8.02685C1.68876 7.34904 1.86476 6.68636 2.16599 6.07852C2.46721 5.47068 2.88748 4.93019 3.40159 4.48944C3.9157 4.04869 4.51308 3.71675 5.15793 3.51351C5.80279 3.31027 6.48184 3.23991 7.15441 3.30666C7.82697 3.3734 8.47921 3.57587 9.07203 3.90193C9.66484 4.22799 10.186 4.67094 10.6044 5.20422L12.0024 6.95846L13.3993 5.20422C13.8406 4.65065 14.3931 4.19675 15.0208 3.87211C15.6485 3.54748 16.3372 3.3594 17.0421 3.32014C17.7469 3.28088 18.4521 3.39132 19.1117 3.64426C19.7712 3.8972 20.3703 4.28696 20.8698 4.78813Z" stroke="#666666" stroke-width="1.8" stroke-linecap="round" stroke-linejoin="round"/>
</svg>
