<svg width="14" height="15" viewBox="0 0 14 15" fill="none" xmlns="http://www.w3.org/2000/svg">
<g id="location">
<path id="Vector" d="M6.99967 1.6665C4.43301 1.6665 2.33301 3.7665 2.33301 6.33317C2.33301 9.48317 6.41634 13.0415 6.59134 13.2165C6.70801 13.2748 6.88301 13.3332 6.99967 13.3332C7.11634 13.3332 7.29134 13.2748 7.40801 13.2165C7.58301 13.0415 11.6663 9.48317 11.6663 6.33317C11.6663 3.7665 9.56634 1.6665 6.99967 1.6665ZM6.99967 11.9915C5.77467 10.8248 3.49967 8.3165 3.49967 6.33317C3.49967 4.40817 5.07467 2.83317 6.99967 2.83317C8.92467 2.83317 10.4997 4.40817 10.4997 6.33317C10.4997 8.25817 8.22467 10.8248 6.99967 11.9915ZM6.99967 3.99984C5.71634 3.99984 4.66634 5.04984 4.66634 6.33317C4.66634 7.6165 5.71634 8.6665 6.99967 8.6665C8.28301 8.6665 9.33301 7.6165 9.33301 6.33317C9.33301 5.04984 8.28301 3.99984 6.99967 3.99984ZM6.99967 7.49984C6.35801 7.49984 5.83301 6.97484 5.83301 6.33317C5.83301 5.6915 6.35801 5.1665 6.99967 5.1665C7.64134 5.1665 8.16634 5.6915 8.16634 6.33317C8.16634 6.97484 7.64134 7.49984 6.99967 7.49984Z" fill="#333333"/>
</g>
</svg>
