<svg width="24" height="24" viewBox="0 0 24 24" fill="none" xmlns="http://www.w3.org/2000/svg">
<path d="M11.9995 2C7.59951 2 3.99951 5.6 3.99951 10C3.99951 15.4 10.9995 21.5 11.2995 21.8C11.4995 21.9 11.7995 22 11.9995 22C12.1995 22 12.4995 21.9 12.6995 21.8C12.9995 21.5 19.9995 15.4 19.9995 10C19.9995 5.6 16.3995 2 11.9995 2ZM11.9995 19.7C9.89951 17.7 5.99951 13.4 5.99951 10C5.99951 6.7 8.69951 4 11.9995 4C15.2995 4 17.9995 6.7 17.9995 10C17.9995 13.3 14.0995 17.7 11.9995 19.7ZM11.9995 6C9.79951 6 7.99951 7.8 7.99951 10C7.99951 12.2 9.79951 14 11.9995 14C14.1995 14 15.9995 12.2 15.9995 10C15.9995 7.8 14.1995 6 11.9995 6ZM11.9995 12C10.8995 12 9.99951 11.1 9.99951 10C9.99951 8.9 10.8995 8 11.9995 8C13.0995 8 13.9995 8.9 13.9995 10C13.9995 11.1 13.0995 12 11.9995 12Z" fill="#333333"/>
</svg>
