<svg width="20" height="21" viewBox="0 0 20 21" fill="none" xmlns="http://www.w3.org/2000/svg">
<path d="M3.33334 15.5C3.09723 15.5 2.89945 15.42 2.74 15.26C2.58056 15.1 2.50056 14.9022 2.5 14.6667C2.49945 14.4311 2.57945 14.2333 2.74 14.0733C2.90056 13.9133 3.09834 13.8333 3.33334 13.8333H16.6667C16.9028 13.8333 17.1008 13.9133 17.2608 14.0733C17.4208 14.2333 17.5006 14.4311 17.5 14.6667C17.4994 14.9022 17.4194 15.1003 17.26 15.2608C17.1006 15.4214 16.9028 15.5011 16.6667 15.5H3.33334ZM3.33334 11.3333C3.09723 11.3333 2.89945 11.2533 2.74 11.0933C2.58056 10.9333 2.50056 10.7356 2.5 10.5C2.49945 10.2644 2.57945 10.0667 2.74 9.90667C2.90056 9.74667 3.09834 9.66667 3.33334 9.66667H16.6667C16.9028 9.66667 17.1008 9.74667 17.2608 9.90667C17.4208 10.0667 17.5006 10.2644 17.5 10.5C17.4994 10.7356 17.4194 10.9336 17.26 11.0942C17.1006 11.2547 16.9028 11.3344 16.6667 11.3333H3.33334ZM3.33334 7.16667C3.09723 7.16667 2.89945 7.08667 2.74 6.92667C2.58056 6.76667 2.50056 6.56889 2.5 6.33333C2.49945 6.09778 2.57945 5.9 2.74 5.74C2.90056 5.58 3.09834 5.5 3.33334 5.5H16.6667C16.9028 5.5 17.1008 5.58 17.2608 5.74C17.4208 5.9 17.5006 6.09778 17.5 6.33333C17.4994 6.56889 17.4194 6.76694 17.26 6.9275C17.1006 7.08806 16.9028 7.16778 16.6667 7.16667H3.33334Z" fill="#333333"/>
</svg>
