<svg width="25" height="24" viewBox="0 0 25 24" fill="none" xmlns="http://www.w3.org/2000/svg">
<path d="M12.6787 0.721191C16.0865 0.894108 18.7969 3.7118 18.7969 7.1626L18.7881 7.49463C18.6152 10.9024 15.7974 13.6127 12.3467 13.6128L12.0146 13.604C11.5394 13.5799 11.0784 13.5019 10.6357 13.3804C10.6307 13.3825 10.6262 13.3861 10.6211 13.3882L10.5273 13.4214C9.38777 13.7633 7.43205 14.3033 5.52441 16.3579L5.14355 16.7896C3.35584 18.9213 2.89648 21.2433 2.89648 22.313C2.89617 22.8512 2.46016 23.2876 1.92188 23.2876C1.38359 23.2876 0.947579 22.8512 0.947266 22.313C0.947266 20.8329 1.53794 18.0545 3.64941 15.5366L3.87598 15.2729C5.39577 13.5528 6.97969 12.6579 8.24512 12.1392C6.89125 11.0219 6.0001 9.36355 5.90527 7.49463L5.89648 7.1626C5.89649 3.60049 8.78462 0.712613 12.3467 0.712402L12.6787 0.721191ZM12.3467 2.6626C9.86158 2.66281 7.84668 4.67745 7.84668 7.1626C7.84679 9.64766 9.86164 11.6624 12.3467 11.6626C14.8318 11.6625 16.8466 9.64772 16.8467 7.1626C16.8467 4.67738 14.8319 2.6627 12.3467 2.6626Z" fill="#666666"/>
<path d="M14.353 15.6748H22.903" stroke="#666666" stroke-width="1.95" stroke-linecap="round"/>
<path d="M14.353 18.9746H22.903" stroke="#666666" stroke-width="1.95" stroke-linecap="round"/>
<path d="M14.5029 22.2749H23.0529" stroke="#666666" stroke-width="1.95" stroke-linecap="round"/>
</svg>
