<svg width="51" height="50" viewBox="0 0 51 50" fill="none" xmlns="http://www.w3.org/2000/svg">
<path d="M10.5 0.599609H49.9004V40C49.9004 45.1915 45.6915 49.4004 40.5 49.4004H10.5C5.30852 49.4004 1.09961 45.1915 1.09961 40V10C1.09961 4.80852 5.30852 0.599609 10.5 0.599609Z" stroke="#5E2BB8" stroke-width="1.2"/>
<path d="M14.563 12.1983C15.2324 12.1449 16.0649 12.2376 17.02 12.5509L17.1303 12.5919C17.3961 12.7038 17.7147 12.916 18.0434 13.1593C18.4399 13.4527 18.9171 13.8439 19.4497 14.3028C20.2714 15.011 21.24 15.8961 22.2749 16.8712L32.8803 13.7325C33.3536 13.5928 33.8645 13.7476 34.1811 14.1261L35.519 15.7266L35.6059 15.8419C35.9984 16.4385 35.8046 17.2609 35.1587 17.6104L27.3569 21.8311C28.5492 23.0269 29.6692 24.1685 30.5991 25.1339C30.7353 25.2752 30.9367 25.3337 31.1274 25.2872L36.1255 24.0684C36.315 24.022 36.5166 24.08 36.6528 24.2198L38.3452 25.9708C38.5955 26.2303 38.5336 26.6574 38.2192 26.8341L31.5756 30.5645C31.4834 30.6163 31.4074 30.6937 31.3579 30.7872L27.7924 37.5235C27.6237 37.8422 27.1981 37.9146 26.9331 37.67L25.143 36.0177C24.9993 35.8854 24.9369 35.6859 24.979 35.4952L26.0815 30.4678C26.1234 30.2764 26.0605 30.0773 25.9165 29.9444C24.8776 28.9855 23.6463 27.8169 22.3637 26.5753L17.7758 34.546C17.4093 35.1824 16.5816 35.3544 15.9956 34.9464L15.8823 34.8565L14.3178 33.4766C13.9478 33.15 13.8071 32.6346 13.9594 32.1651L17.3842 21.6261C16.4517 20.6706 15.6011 19.7799 14.9067 19.0206C14.4325 18.502 14.0261 18.0407 13.7143 17.6612C13.489 17.387 13.294 17.1326 13.1596 16.921L13.0473 16.7237C12.7413 16.1117 12.5475 15.4197 12.5083 14.755C12.4699 14.1016 12.579 13.4245 12.935 12.8819C12.9566 12.8474 12.9823 12.8143 13.0122 12.7843C13.3502 12.4464 13.9153 12.2501 14.563 12.1983ZM14.6508 13.2969C14.29 13.3258 14.0538 13.4058 13.9174 13.4776C13.8534 13.5113 13.805 13.5676 13.7739 13.6329C13.6446 13.9041 13.5819 14.2655 13.6069 14.6905C13.6367 15.1953 13.7873 15.7428 14.0317 16.2315L14.0971 16.3428C14.1838 16.4774 14.337 16.6834 14.5659 16.962C14.8603 17.3203 15.2514 17.7659 15.7192 18.2774C16.6548 19.3005 17.8836 20.5748 19.2241 21.9278C21.9057 24.6344 25.024 27.6429 27.1264 29.5626C27.2718 29.6949 27.3357 29.895 27.2934 30.087L26.1889 35.1134C26.147 35.3045 26.2101 35.5041 26.354 35.6368L26.6284 35.8897C26.8939 36.1346 27.3196 36.0623 27.4887 35.7432L30.5356 29.9874C30.5361 29.9865 30.5372 29.9854 30.5376 29.9844L30.5385 29.9815C30.5696 29.924 30.6115 29.8714 30.6626 29.8272L30.6733 29.8194C30.6872 29.808 30.7024 29.7981 30.7173 29.7882L30.7534 29.7637L30.7651 29.7559L36.434 26.5723C36.7489 26.3955 36.8112 25.9685 36.56 25.7091L36.2993 25.4395C36.1633 25.2991 35.9628 25.2408 35.7729 25.2872L30.7729 26.5079C30.5824 26.5541 30.3799 26.4954 30.2446 26.3536C28.2736 24.2931 25.2111 21.1982 22.4536 18.5587C21.0746 17.2388 19.7761 16.0375 18.7309 15.1368C18.2079 14.6861 17.7535 14.3154 17.3881 14.045C17.0991 13.8311 16.8971 13.7031 16.7739 13.6397L16.6762 13.5977C15.8375 13.3226 15.1526 13.2569 14.6508 13.2969ZM15.2964 32.504L16.6655 33.712L21.3471 25.5821C20.3776 24.6339 19.3978 23.6674 18.4721 22.7335L15.2964 32.504ZM23.4253 17.9669C24.3839 18.8873 25.3733 19.8581 26.3383 20.8165L34.3549 16.4786L33.1831 15.0782L23.4253 17.9669Z" fill="#5E2BB8"/>
<path d="M27.9937 27.49L33.5003 32.9966" stroke="#5E2BB8" stroke-width="1.37666" stroke-linecap="round"/>
</svg>
