<svg width="51" height="50" viewBox="0 0 51 50" fill="none" xmlns="http://www.w3.org/2000/svg">
<path d="M10.5 0.599609H49.9004V40C49.9004 45.1915 45.6915 49.4004 40.5 49.4004H10.5C5.30852 49.4004 1.09961 45.1915 1.09961 40V10C1.09961 4.80852 5.30852 0.599609 10.5 0.599609Z" stroke="#5E2BB8" stroke-width="1.2"/>
<circle cx="20.863" cy="18.6008" r="3.92816" stroke="#5E2BB8" stroke-width="1.26715"/>
<circle cx="30.7468" cy="19.6145" r="3.92816" stroke="#5E2BB8" stroke-width="1.26715"/>
<path d="M12.5 35.8341C12.7534 30.1319 13.387 27.3442 15.6679 25.5702C18.2987 23.5242 22.3838 24.1764 26.8188 24.8099C31.2538 25.4435 33.6614 24.8099 34.8019 24.5565C35.9423 24.3031 36.956 24.4298 37.2094 25.5702C37.4629 26.7107 35.9423 27.8511 34.8019 28.1045C32.2675 28.6677 28.5928 28.6114 26.8188 28.3579C25.3996 28.1552 25.3827 33.2576 25.5517 35.8341" stroke="#5E2BB8" stroke-width="1.01372" stroke-linecap="round"/>
<path d="M12.5 35.9608H37.9697C38.2496 35.9608 38.4805 35.7339 38.4905 35.4542C38.5186 34.6673 38.5291 33.5842 37.843 31.5258C37.3361 30.0052 36.4491 28.6114 36.069 28.1045" stroke="#5E2BB8" stroke-width="1.01372" stroke-linecap="round"/>
<path d="M16.469 30.5135L16.2605 35.7061" stroke="#5E2BB8" stroke-width="1.01372" stroke-linecap="round"/>
<path d="M34.1895 31.4058L34.5268 35.7008" stroke="#5E2BB8" stroke-width="1.01372" stroke-linecap="round"/>
</svg>
