<svg width="14" height="14" viewBox="0 0 14 14" fill="none" xmlns="http://www.w3.org/2000/svg">
<path d="M3 11.4245V2.57553C3 2.25786 3.29885 2 3.667 2C3.98918 2 4.25787 2.19758 4.31998 2.45973L4.334 2.57553V11.4245L4.31998 11.5403C4.25787 11.8024 3.98918 12 3.667 12C3.34482 12 3.07613 11.8024 3.01402 11.5403L3 11.4245Z" fill="white"/>
<path d="M9.66602 11.4245V2.57553C9.66602 2.25786 9.96486 2 10.333 2C10.6552 2 10.9239 2.19758 10.986 2.45973L11 2.57553V11.4245L10.986 11.5403C10.9239 11.8024 10.6552 12 10.333 12C10.0108 12 9.74215 11.8024 9.68004 11.5403L9.66602 11.4245Z" fill="white"/>
</svg>
