<svg width="13" height="13" viewBox="0 0 13 13" fill="none" xmlns="http://www.w3.org/2000/svg">
<g id="Group">
<path id="Vector (Stroke)" d="M8.30859 1.1456C7.01056 0.706953 5.59734 0.754747 4.33203 1.28037C3.06655 1.80617 2.03473 2.77443 1.42969 4.004C0.82481 5.23341 0.687583 6.6407 1.04297 7.96396C1.39845 9.2873 2.22272 10.4365 3.3623 11.1974C4.50203 11.9582 5.87967 12.2798 7.23828 12.1007C8.59684 11.9216 9.84446 11.2549 10.748 10.2247C11.6516 9.19446 12.15 7.87046 12.1504 6.5001C12.1505 6.14111 11.859 5.84981 11.5 5.84971C11.1411 5.8497 10.8497 6.14117 10.8496 6.5001C10.8492 7.55504 10.4661 8.57417 9.77051 9.36728C9.07482 10.1605 8.11435 10.6737 7.06836 10.8116C6.02233 10.9495 4.96149 10.7021 4.08398 10.1163C3.20664 9.53049 2.57154 8.64589 2.29785 7.62705C2.02418 6.60813 2.13086 5.52388 2.59668 4.57724C3.06247 3.63098 3.85616 2.88634 4.83008 2.48154C5.80439 2.07672 6.89306 2.03924 7.89258 2.37705C8.8921 2.71487 9.73471 3.40459 10.2637 4.31748L10.8262 3.99131L11.3887 3.66611C10.7016 2.4804 9.60682 1.58438 8.30859 1.1456ZM10.2637 4.31748C10.4436 4.62809 10.8417 4.73378 11.1523 4.55381C11.4626 4.37381 11.5683 3.97658 11.3887 3.66611L10.2637 4.31748Z" fill="#666666"/>
<path id="Vector (Stroke)_2" d="M11.5254 1.49951C11.5254 1.14053 11.234 0.849121 10.875 0.849121C10.516 0.849121 10.2246 1.14053 10.2246 1.49951V3.3501H8.375L8.24414 3.36279C7.94784 3.42327 7.72469 3.68536 7.72461 3.99951C7.72461 4.31371 7.94783 4.57571 8.24414 4.63623L8.375 4.6499H10.875C11.234 4.6499 11.5254 4.3585 11.5254 3.99951V1.49951Z" fill="#666666"/>
</g>
</svg>
