<svg width="13" height="13" viewBox="0 0 13 13" fill="none" xmlns="http://www.w3.org/2000/svg">
<g id="star">
<path id="Vector" d="M6.50016 9.1376L4.42516 10.3876C4.3335 10.4459 4.23766 10.4709 4.13766 10.4626C4.03766 10.4543 3.95016 10.4209 3.87516 10.3626C3.80016 10.3043 3.74183 10.2314 3.70016 10.1441C3.6585 10.0568 3.65016 9.95877 3.67516 9.8501L4.22516 7.4876L2.38766 5.9001C2.30433 5.8251 2.25233 5.7396 2.23166 5.6436C2.211 5.5476 2.21716 5.45393 2.25016 5.3626C2.28316 5.27126 2.33316 5.19626 2.40016 5.1376C2.46716 5.07893 2.55883 5.04143 2.67516 5.0251L5.10016 4.8126L6.03766 2.5876C6.07933 2.4876 6.144 2.4126 6.23166 2.3626C6.31933 2.3126 6.40883 2.2876 6.50016 2.2876C6.5915 2.2876 6.681 2.3126 6.76866 2.3626C6.85633 2.4126 6.921 2.4876 6.96266 2.5876L7.90016 4.8126L10.3252 5.0251C10.4418 5.04176 10.5335 5.07926 10.6002 5.1376C10.6668 5.19593 10.7168 5.27093 10.7502 5.3626C10.7835 5.45426 10.7898 5.5481 10.7692 5.6441C10.7485 5.7401 10.6963 5.82543 10.6127 5.9001L8.77516 7.4876L9.32516 9.8501C9.35016 9.95843 9.34183 10.0564 9.30016 10.1441C9.2585 10.2318 9.20016 10.3046 9.12516 10.3626C9.05016 10.4206 8.96266 10.4539 8.86266 10.4626C8.76266 10.4713 8.66683 10.4463 8.57516 10.3876L6.50016 9.1376Z" fill="#5E2BB8"/>
</g>
</svg>
