<svg width="93" height="39" viewBox="0 0 93 39" fill="none" xmlns="http://www.w3.org/2000/svg">
<rect width="93" height="39" rx="19.5" fill="#FDE103"/>
<path d="M25 12.5C20.8645 12.5 17.5 15.1918 17.5 18.5C17.5 20.681 18.9235 22.6362 21.25 23.7005V27.5L25.255 24.4963C29.2727 24.389 32.5 21.74 32.5 18.5C32.5 15.1918 29.1355 12.5 25 12.5Z" fill="#111111"/>
<path d="M50.5098 20.1221V21.4111H38.4102V20.1221H43.6396V19.0088H39.9629V13.3838H49.0596V14.6582H41.5889V15.5664H48.7373V16.7822H41.5889V17.7637H49.1621V19.0088H45.2656V20.1221H50.5098ZM48.9863 22.3486V26.3037H47.3457V23.6377H39.7725V22.3486H48.9863ZM55.7908 15.1709C55.7908 16.8408 56.8748 18.4082 58.9109 19.0527L58.032 20.3271C56.6038 19.8438 55.5784 18.877 55.0145 17.6465C54.4285 19.0527 53.3592 20.1587 51.8357 20.6934L50.9568 19.4189C53.0955 18.6719 54.1502 16.9141 54.1648 15.0244V13.7646H55.7908V15.1709ZM61.5477 13.0615V16.2842H63.3934V17.6318H61.5477V20.9863H59.9217V13.0615H61.5477ZM57.241 21.2793C59.9803 21.2646 61.6648 22.2021 61.6795 23.7695C61.6648 25.3662 59.9803 26.2891 57.241 26.2891C54.4725 26.2891 52.7586 25.3662 52.7586 23.7695C52.7586 22.2021 54.4725 21.2646 57.241 21.2793ZM57.241 22.5537C55.4246 22.5537 54.3846 22.9932 54.3846 23.7695C54.3846 24.5898 55.4246 25 57.241 25C59.0574 25 60.0682 24.5898 60.0682 23.7695C60.0682 22.9932 59.0574 22.5537 57.241 22.5537ZM74.2115 13.0615V16.1377H76.0572V17.4854H74.2115V20.5176H72.5855V13.0615H74.2115ZM70.2125 13.9111V15.2295H65.9352V18.6133C68.4254 18.6133 69.8097 18.5181 71.3844 18.2031L71.5602 19.4922C69.8316 19.873 68.2789 19.9316 65.3932 19.9316H64.3238V13.9111H70.2125ZM74.2115 21.1182V26.1279H65.6568V21.1182H74.2115ZM67.2682 22.4219V24.8389H72.6002V22.4219H67.2682Z" fill="#111111"/>
</svg>
