<svg width="26" height="26" viewBox="0 0 26 26" fill="none" xmlns="http://www.w3.org/2000/svg">
<circle cx="13" cy="13" r="13" fill="#D3D3D3"/>
<path fill-rule="evenodd" clip-rule="evenodd" d="M12.9998 8.33331C13.4986 8.33331 14.0102 8.34615 14.506 8.36715L15.0917 8.39515L15.6523 8.4284L16.1773 8.46398L16.6568 8.50131C17.1772 8.54092 17.667 8.7629 18.0398 9.12816C18.4127 9.49343 18.6446 9.97854 18.6949 10.4981L18.7183 10.746L18.762 11.2768C18.8028 11.8269 18.8332 12.4266 18.8332 13C18.8332 13.5734 18.8028 14.1731 18.762 14.7231L18.7183 15.254L18.6949 15.5019C18.6446 16.0215 18.4126 16.5067 18.0396 16.872C17.6666 17.2372 17.1767 17.4592 16.6562 17.4986L16.1778 17.5354L15.6528 17.5716L15.0917 17.6048L14.506 17.6328C14.0042 17.6545 13.5021 17.6658 12.9998 17.6666C12.4976 17.6658 11.9954 17.6545 11.4937 17.6328L10.908 17.6048L10.3474 17.5716L9.82242 17.5354L9.34292 17.4986C8.82248 17.459 8.3327 17.2371 7.95986 16.8718C7.58702 16.5065 7.35503 16.0214 7.30475 15.5019L7.28142 15.254L7.23767 14.7231C7.19324 14.1498 7.1695 13.575 7.1665 13C7.1665 12.4266 7.19684 11.8269 7.23767 11.2768L7.28142 10.746L7.30475 10.4981C7.35501 9.97864 7.58692 9.49359 7.95964 9.12834C8.33236 8.76309 8.822 8.54105 9.34234 8.50131L9.82125 8.46398L10.3463 8.4284L10.9074 8.39515L11.4931 8.36715C11.995 8.3454 12.4974 8.33412 12.9998 8.33331ZM11.8332 11.5854V14.4146C11.8332 14.6841 12.1248 14.8521 12.3582 14.7179L14.8082 13.3033C14.8615 13.2726 14.9058 13.2284 14.9366 13.1752C14.9673 13.1219 14.9836 13.0615 14.9836 13C14.9836 12.9385 14.9673 12.878 14.9366 12.8248C14.9058 12.7715 14.8615 12.7273 14.8082 12.6966L12.3582 11.2826C12.3049 11.2519 12.2446 11.2357 12.1831 11.2358C12.1217 11.2358 12.0613 11.252 12.0081 11.2827C11.9549 11.3134 11.9107 11.3577 11.88 11.4109C11.8493 11.4641 11.8331 11.5245 11.8332 11.586V11.5854Z" fill="white"/>
</svg>
