<svg width="237" height="40" viewBox="0 0 237 40" fill="none" xmlns="http://www.w3.org/2000/svg">
<g clip-path="url(#clip0_1133_7696)">
<rect x="0.5" y="9" width="236" height="3" rx="1.5" fill="#D3D3D3"/>
<rect x="79.5" y="9" width="157" height="3" rx="1.5" fill="#5E2BB8"/>
<circle cx="78.5" cy="10" r="9.5" fill="white" stroke="#D3D3D3"/>
<circle cx="226.5" cy="10" r="9.5" fill="white" stroke="#D3D3D3"/>
<path d="M4.5752 36.127C2.6709 36.127 1.31885 35.105 1.26172 33.6006H2.68359C2.73438 34.4067 3.53418 34.9209 4.5625 34.9209C5.67334 34.9209 6.47949 34.3179 6.47949 33.4229C6.47949 32.5151 5.72412 31.8677 4.41016 31.8613H3.62305V30.7188H4.41016C5.45752 30.7251 6.1875 30.1411 6.1875 29.2588C6.1875 28.4209 5.55908 27.8496 4.58789 27.8496C3.66748 27.8496 2.84229 28.3638 2.81055 29.1953H1.46484C1.50293 27.6973 2.88672 26.6816 4.60059 26.6816C6.40967 26.6816 7.5459 27.8242 7.5332 29.1826C7.5459 30.23 6.89844 30.979 5.9082 31.2266V31.29C7.16504 31.4678 7.89502 32.312 7.88867 33.4736C7.89502 35.0034 6.47949 36.127 4.5752 36.127ZM12.364 36.127C10.2376 36.127 8.98707 34.4131 8.98707 31.4043C8.98707 28.4146 10.2503 26.6816 12.364 26.6816C14.4714 26.6816 15.7346 28.4146 15.741 31.4043C15.7346 34.4131 14.4905 36.127 12.364 36.127ZM10.3836 31.4043C10.3772 33.6958 11.1199 34.9209 12.364 34.9209C13.6018 34.9209 14.3445 33.6958 14.3445 31.4043C14.3445 29.1191 13.5955 27.8687 12.364 27.8623C11.1262 27.8687 10.3836 29.1191 10.3836 31.4043ZM20.1275 36.127C18.001 36.127 16.7505 34.4131 16.7505 31.4043C16.7505 28.4146 18.0137 26.6816 20.1275 26.6816C22.2349 26.6816 23.4981 28.4146 23.5044 31.4043C23.4981 34.4131 22.2539 36.127 20.1275 36.127ZM18.147 31.4043C18.1406 33.6958 18.8833 34.9209 20.1275 34.9209C21.3653 34.9209 22.1079 33.6958 22.1079 31.4043C22.1079 29.1191 21.3589 27.8687 20.1275 27.8623C18.8897 27.8687 18.147 29.1191 18.147 31.4043Z" fill="#5E2BB8"/>
<path d="M30.6572 26.7705V31.9629H25.4395V26.7705H30.6572ZM26.417 31.1631H29.6924V27.583H26.417V31.1631ZM26.7217 36.7871V33.2324H27.6992V35.9492H34.3008V36.7871H26.7217ZM32.79 34.0195V25.7422H33.7803V29.1826H35.4814V30.0205H33.7803V34.0195H32.79ZM45.238 25.7549V34.3242H44.2351V33.1562H41.8992V32.4326H44.2351V25.7549H45.238ZM35.8689 30.9854C37.97 30.9727 40.801 30.9536 43.2195 30.6553L43.283 31.3789C42.28 31.5376 41.22 31.6392 40.1853 31.7026V33.9307H39.1824V31.7534C38.0398 31.7979 36.9544 31.7979 36.0086 31.7979L35.8689 30.9854ZM36.783 28.1797C36.7766 26.9927 37.9065 26.2119 39.5759 26.2119C41.2327 26.2119 42.3626 26.9927 42.3689 28.1797C42.3626 29.3857 41.2327 30.1348 39.5759 30.1348C37.9065 30.1348 36.7766 29.3857 36.783 28.1797ZM37.4939 36.7871V33.4863H38.4968V35.9492H45.5173V36.7871H37.4939ZM37.7351 28.1797C37.7224 28.916 38.4714 29.3921 39.5759 29.3984C40.6487 29.3921 41.4104 28.916 41.4168 28.1797C41.4104 27.4561 40.6487 26.9609 39.5759 26.9736C38.4714 26.9609 37.7224 27.4561 37.7351 28.1797Z" fill="#888888"/>
<path d="M52.7314 32.2295C53.144 31.7534 53.6455 31.5122 54.2041 31.5059C55.1689 31.5122 56.0449 32.2358 56.9717 32.2422C57.543 32.2358 58.0381 31.9692 58.4189 31.4424V32.4961C58 32.9722 57.5049 33.2197 56.9463 33.2197C55.9814 33.2197 55.0991 32.4897 54.166 32.4834C53.6074 32.4897 53.1187 32.7563 52.7314 33.2832V32.2295Z" fill="#888888"/>
<path d="M68.4736 26.6816C70.1621 26.6943 71.9331 27.71 71.9395 31.0742C71.9395 34.2988 70.5493 36.127 68.3467 36.127C66.6519 36.127 65.4712 35.0796 65.249 33.5879H66.6328C66.8232 34.3623 67.4199 34.9019 68.3467 34.9082C69.7622 34.9019 70.5938 33.6704 70.6064 31.5693H70.4922C69.9971 32.3438 69.1338 32.8135 68.1436 32.8135C66.4932 32.8135 65.1729 31.5503 65.1729 29.792C65.1729 28.04 66.4741 26.6689 68.4736 26.6816ZM66.5312 29.7666C66.5376 30.833 67.3311 31.6772 68.4482 31.6709C69.5591 31.6772 70.416 30.7695 70.416 29.7539C70.416 28.7573 69.5972 27.8496 68.4736 27.8496C67.3628 27.8496 66.5249 28.7129 66.5312 29.7666ZM76.3513 36.127C74.2249 36.127 72.9744 34.4131 72.9744 31.4043C72.9744 28.4146 74.2376 26.6816 76.3513 26.6816C78.4587 26.6816 79.7219 28.4146 79.7283 31.4043C79.7219 34.4131 78.4778 36.127 76.3513 36.127ZM74.3709 31.4043C74.3645 33.6958 75.1072 34.9209 76.3513 34.9209C77.5891 34.9209 78.3318 33.6958 78.3318 31.4043C78.3318 29.1191 77.5828 27.8687 76.3513 27.8623C75.1135 27.8687 74.3709 29.1191 74.3709 31.4043ZM84.1148 36.127C81.9883 36.127 80.7378 34.4131 80.7378 31.4043C80.7378 28.4146 82.001 26.6816 84.1148 26.6816C86.2222 26.6816 87.4854 28.4146 87.4917 31.4043C87.4854 34.4131 86.2412 36.127 84.1148 36.127ZM82.1343 31.4043C82.1279 33.6958 82.8706 34.9209 84.1148 34.9209C85.3526 34.9209 86.0952 33.6958 86.0952 31.4043C86.0952 29.1191 85.3462 27.8687 84.1148 27.8623C82.877 27.8687 82.1343 29.1191 82.1343 31.4043Z" fill="#5E2BB8"/>
<path d="M94.6572 26.7705V31.9629H89.4395V26.7705H94.6572ZM90.417 31.1631H93.6924V27.583H90.417V31.1631ZM90.7217 36.7871V33.2324H91.6992V35.9492H98.3008V36.7871H90.7217ZM96.79 34.0195V25.7422H97.7803V29.1826H99.4814V30.0205H97.7803V34.0195H96.79ZM109.238 25.7549V34.3242H108.235V33.1562H105.899V32.4326H108.235V25.7549H109.238ZM99.8689 30.9854C101.97 30.9727 104.801 30.9536 107.219 30.6553L107.283 31.3789C106.28 31.5376 105.22 31.6392 104.185 31.7026V33.9307H103.182V31.7534C102.04 31.7979 100.954 31.7979 100.009 31.7979L99.8689 30.9854ZM100.783 28.1797C100.777 26.9927 101.907 26.2119 103.576 26.2119C105.233 26.2119 106.363 26.9927 106.369 28.1797C106.363 29.3857 105.233 30.1348 103.576 30.1348C101.907 30.1348 100.777 29.3857 100.783 28.1797ZM101.494 36.7871V33.4863H102.497V35.9492H109.517V36.7871H101.494ZM101.735 28.1797C101.722 28.916 102.471 29.3921 103.576 29.3984C104.649 29.3921 105.41 28.916 105.417 28.1797C105.41 27.4561 104.649 26.9609 103.576 26.9736C102.471 26.9609 101.722 27.4561 101.735 28.1797ZM123.216 25.7422V37.0537H122.213V25.7422H123.216ZM114.329 30.5537C114.336 28.1543 115.529 26.6245 117.211 26.6182C118.887 26.6245 120.099 28.1543 120.093 30.5537C120.099 32.9595 118.887 34.4829 117.211 34.4766C115.529 34.4829 114.336 32.9595 114.329 30.5537ZM115.294 30.5537C115.294 32.3882 116.081 33.5942 117.211 33.5879C118.347 33.5942 119.128 32.3882 119.128 30.5537C119.128 28.7192 118.347 27.5132 117.211 27.5068C116.081 27.5132 115.294 28.7192 115.294 30.5537ZM133.62 25.7422V30.4014H135.512V31.2266H133.62V37.0283H132.63V25.7422H133.62ZM124.822 28.3828V27.5576H127.73V25.8818H128.72V27.5576H131.538V28.3828H124.822ZM125.47 31.9121C125.463 30.3887 126.631 29.3223 128.237 29.3223C129.831 29.3223 130.992 30.3887 131.005 31.9121C130.992 33.4419 129.831 34.502 128.237 34.502C126.631 34.502 125.463 33.4419 125.47 31.9121ZM126.422 31.9121C126.416 32.9404 127.184 33.6641 128.237 33.6514C129.278 33.6641 130.04 32.9404 130.053 31.9121C130.04 30.8901 129.278 30.1538 128.237 30.1602C127.184 30.1538 126.416 30.8901 126.422 31.9121Z" fill="#888888"/>
</g>
<defs>
<clipPath id="clip0_1133_7696">
<rect width="236" height="40" fill="white" transform="translate(0.5)"/>
</clipPath>
</defs>
</svg>
