<svg width="14" height="15" viewBox="0 0 14 15" fill="none" xmlns="http://www.w3.org/2000/svg">
<g id="calender">
<path id="Vector" d="M11.0837 2.83317H9.91699V2.24984C9.91699 2.09513 9.85553 1.94675 9.74614 1.83736C9.63674 1.72796 9.48837 1.6665 9.33366 1.6665C9.17895 1.6665 9.03058 1.72796 8.92118 1.83736C8.81178 1.94675 8.75033 2.09513 8.75033 2.24984V2.83317H5.25033V2.24984C5.25033 2.09513 5.18887 1.94675 5.07947 1.83736C4.97007 1.72796 4.8217 1.6665 4.66699 1.6665C4.51228 1.6665 4.36391 1.72796 4.25451 1.83736C4.14512 1.94675 4.08366 2.09513 4.08366 2.24984V2.83317H2.91699C2.45286 2.83317 2.00774 3.01755 1.67956 3.34573C1.35137 3.67392 1.16699 4.11904 1.16699 4.58317V11.5832C1.16699 12.0473 1.35137 12.4924 1.67956 12.8206C2.00774 13.1488 2.45286 13.3332 2.91699 13.3332H11.0837C11.5478 13.3332 11.9929 13.1488 12.3211 12.8206C12.6493 12.4924 12.8337 12.0473 12.8337 11.5832V4.58317C12.8337 4.11904 12.6493 3.67392 12.3211 3.34573C11.9929 3.01755 11.5478 2.83317 11.0837 2.83317ZM11.667 11.5832C11.667 11.7379 11.6055 11.8863 11.4961 11.9956C11.3867 12.105 11.2384 12.1665 11.0837 12.1665H2.91699C2.76228 12.1665 2.61391 12.105 2.50451 11.9956C2.39512 11.8863 2.33366 11.7379 2.33366 11.5832V7.49984H11.667V11.5832ZM11.667 6.33317H2.33366V4.58317C2.33366 4.42846 2.39512 4.28009 2.50451 4.17069C2.61391 4.0613 2.76228 3.99984 2.91699 3.99984H4.08366V4.58317C4.08366 4.73788 4.14512 4.88625 4.25451 4.99565C4.36391 5.10505 4.51228 5.1665 4.66699 5.1665C4.8217 5.1665 4.97007 5.10505 5.07947 4.99565C5.18887 4.88625 5.25033 4.73788 5.25033 4.58317V3.99984H8.75033V4.58317C8.75033 4.73788 8.81178 4.88625 8.92118 4.99565C9.03058 5.10505 9.17895 5.1665 9.33366 5.1665C9.48837 5.1665 9.63674 5.10505 9.74614 4.99565C9.85553 4.88625 9.91699 4.73788 9.91699 4.58317V3.99984H11.0837C11.2384 3.99984 11.3867 4.0613 11.4961 4.17069C11.6055 4.28009 11.667 4.42846 11.667 4.58317V6.33317Z" fill="#333333"/>
</g>
</svg>
